<?xml version="1.0" standalone="no"?><!DOCTYPE svg PUBLIC "-//W3C//DTD SVG 1.1//EN" "http://www.w3.org/Graphics/SVG/1.1/DTD/svg11.dtd"><svg t="1569952352123" class="icon" viewBox="0 0 1024 1024" version="1.1" xmlns="http://www.w3.org/2000/svg" p-id="8783" xmlns:xlink="http://www.w3.org/1999/xlink" width="200" height="200"><defs><style type="text/css"></style></defs><path d="M866.016 40H158.016A118.368 118.368 0 0 0 40 158.016v708a118.368 118.368 0 0 0 118.016 118.016h708a118.368 118.368 0 0 0 118.016-118.016V158.016c0-64.896-47.2-118.016-118.016-118.016z m64.032 826.016a64.128 64.128 0 0 1-64.064 64.064H157.984a64.128 64.128 0 0 1-64.064-64.064V158.016c0-35.328 28.736-64.064 64.064-64.064h708c44.256 0 64.064 32.192 64.064 64.064v708z" p-id="8784" fill="#ffffff"></path><path d="M538.56 710.016h-56.48L441.696 601.6H276.768l-38.112 108.416H182.144l150.848-396.032h54.72l150.848 396.032z m-112.736-153.152l-59.808-164.64c-1.888-5.28-3.936-14.496-6.144-27.616h-1.28a151.872 151.872 0 0 1-6.4 27.616l-59.328 164.64h132.96zM528.352 309.248h155.456c-10.88-20.736-19.424-35.84-25.568-45.344l24.928-11.648c6.048 9.28 15.104 24.384 27.2 45.344l-23.328 11.648h152.192v23.968h-59.744c-11.552 61.632-36.384 111.168-74.496 148.64 28.704 20.96 74.304 39.744 136.8 56.352a304.96 304.96 0 0 0-22.656 28.16c-60.864-21.056-105.824-43.072-134.88-66.08-29.152 22.656-75.712 45.568-139.744 68.64a1067.232 1067.232 0 0 0-19.424-25.248c61.728-18.56 108.224-39.232 139.424-62.016a291.936 291.936 0 0 1-75.136-148.48h-61.024v-23.968z m223.456 23.968h-136.48c9.696 53.12 32.928 96.992 69.632 131.648 35.072-32.608 57.376-76.448 66.88-131.648z" p-id="8785" fill="#ffffff"></path></svg>