<?xml version="1.0" standalone="no"?><!DOCTYPE svg PUBLIC "-//W3C//DTD SVG 1.1//EN" "http://www.w3.org/Graphics/SVG/1.1/DTD/svg11.dtd"><svg t="1570111124338" class="icon" viewBox="0 0 1024 1024" version="1.1" xmlns="http://www.w3.org/2000/svg" p-id="8007" xmlns:xlink="http://www.w3.org/1999/xlink" width="200" height="200"><defs><style type="text/css"></style></defs><path d="M184 448h-48q-30 0-51 21t-21 51v368q0 30 21 51t51 21h48q30 0 51-21t21-51V520q0-30-21-51t-51-21z m773 26q-11-43-47-56-21-6-42-6H642q-7 0-8-1.5t0-8.5q2-10 4.5-26.5t5-30.5 4.5-26q12-62-4-109-6-17-36-97-10-28-36-39-53-22-102 3-34 18-33 54 0 10 1 48t2 58q1 18-8 33-73 125-76 130-4 6-28 32-17 18-24 30t-7 29q0 284-1 397 0 30 21.5 51t51.5 21h390q40 0 66-9 32-10 51-34t22-58q2-29-6-50-1-4 2-9 28-37 26-76-1-10-7-29-3-7 2-13 26-33 25-69 0-7-3.5-21t-3.5-16q-2-6 0-9 19-21 26-53 0-1 1-2v-29z" p-id="8008"></path></svg>