<?xml version="1.0" standalone="no"?><!DOCTYPE svg PUBLIC "-//W3C//DTD SVG 1.1//EN" "http://www.w3.org/Graphics/SVG/1.1/DTD/svg11.dtd"><svg t="1570111130836" class="icon" viewBox="0 0 1024 1024" version="1.1" xmlns="http://www.w3.org/2000/svg" p-id="8244" xmlns:xlink="http://www.w3.org/1999/xlink" width="200" height="200"><defs><style type="text/css"></style></defs><path d="M85.333333 667.496296C85.333333 777.481481 174.459259 868.503704 284.444444 868.503704c77.748148 0 146.014815-45.511111 178.251852-109.985185l191.525926 34.133333 0 5.688889c0 77.748148 64.474074 142.222222 142.222222 142.222222 77.748148 0 142.222222-64.474074 142.222222-142.222222 0-77.748148-64.474074-142.222222-142.222222-142.222222-56.888889 0-106.192593 34.133333-128.948148 81.540741l-187.733333-32.237037c1.896296-11.377778 3.792593-22.755556 3.792593-34.133333 0-51.2-20.859259-98.607407-53.096296-134.637037l172.562963-172.562963c15.17037 5.688889 32.237037 9.481481 49.303704 9.481481 77.748148 0 142.222222-64.474074 142.222222-142.222222s-64.474074-142.222222-142.222222-142.222222C576.474074 85.333333 512 149.807407 512 227.555556c0 39.822222 17.066667 75.851852 43.614815 102.4l-168.77037 168.77037c-30.340741-17.066667-64.474074-28.444444-102.4-28.444444C174.459259 470.281481 85.333333 559.407407 85.333333 667.496296L85.333333 667.496296 85.333333 667.496296zM85.333333 667.496296" p-id="8245"></path></svg>